<svg xmlns="http://www.w3.org/2000/svg" viewBox="0 0 512 512" role="img" aria-label="eme">
  <rect width="512" height="512" rx="0" fill="#E8A21A"/>
  <g transform="translate(102.3 407.8) scale(0.34617 -0.34617)" fill="#121317">
    <path d="M850 545Q850 501 827.0 478.5Q804 456 761 456H203V521H561Q602 521 602 562Q602 686 558.0 750.0Q514 814 447 814Q393 814 351.5 780.0Q310 746 286.5 679.5Q263 613 263 514Q263 330 343.5 237.0Q424 144 554 144Q642 144 706.5 188.0Q771 232 793 302Q803 314 811.0 318.5Q819 323 827 323Q836 323 842.0 315.0Q848 307 848 291Q843 206 794.0 136.0Q745 66 660.5 23.0Q576 -20 467 -20Q337 -20 241.0 36.0Q145 92 91.5 193.0Q38 294 38 428Q38 565 90.5 671.0Q143 777 242.5 837.0Q342 897 479 897Q592 897 675.0 851.5Q758 806 804.0 726.0Q850 646 850 545Z"/>
  </g>
</svg>
